# Blender 4.2.3 LTS
# www.blender.org
o Cylinder
v 0.000000 -0.200000 -0.200000
v 0.000000 0.200000 -0.200000
v 0.068404 -0.200000 -0.187939
v 0.068404 0.200000 -0.187939
v 0.128558 -0.200000 -0.153209
v 0.128558 0.200000 -0.153209
v 0.173205 -0.200000 -0.100000
v 0.173205 0.200000 -0.100000
v 0.196962 -0.200000 -0.034730
v 0.196962 0.200000 -0.034730
v 0.196962 -0.200000 0.034730
v 0.196962 0.200000 0.034730
v 0.173205 -0.200000 0.100000
v 0.173205 0.200000 0.100000
v 0.128558 -0.200000 0.153209
v 0.128558 0.200000 0.153209
v 0.068404 -0.200000 0.187939
v 0.068404 0.200000 0.187939
v 0.000000 -0.200000 0.200000
v 0.000000 0.200000 0.200000
v -0.068404 -0.200000 0.187939
v -0.068404 0.200000 0.187939
v -0.128558 -0.200000 0.153209
v -0.128558 0.200000 0.153209
v -0.173205 -0.200000 0.100000
v -0.173205 0.200000 0.100000
v -0.196962 -0.200000 0.034730
v -0.196962 0.200000 0.034730
v -0.196962 -0.200000 -0.034730
v -0.196962 0.200000 -0.034730
v -0.173205 -0.200000 -0.100000
v -0.173205 0.200000 -0.100000
v -0.128558 -0.200000 -0.153209
v -0.128558 0.200000 -0.153209
v -0.068404 -0.200000 -0.187939
v -0.068404 0.200000 -0.187939
vn 0.1736 -0.0000 -0.9848
vn 0.5000 -0.0000 -0.8660
vn 0.7660 -0.0000 -0.6428
vn 0.9397 -0.0000 -0.3420
vn 1.0000 -0.0000 -0.0000
vn 0.9397 -0.0000 0.3420
vn 0.7660 -0.0000 0.6428
vn 0.5000 -0.0000 0.8660
vn 0.1736 -0.0000 0.9848
vn -0.1736 -0.0000 0.9848
vn -0.5000 -0.0000 0.8660
vn -0.7660 -0.0000 0.6428
vn -0.9397 -0.0000 0.3420
vn -1.0000 -0.0000 -0.0000
vn -0.9397 -0.0000 -0.3420
vn -0.7660 -0.0000 -0.6428
vn -0.0000 1.0000 -0.0000
vn -0.5000 -0.0000 -0.8660
vn -0.1736 -0.0000 -0.9848
vn -0.0000 -1.0000 -0.0000
s 0
f 2//1 3//1 1//1
f 4//2 5//2 3//2
f 6//3 7//3 5//3
f 8//4 9//4 7//4
f 10//5 11//5 9//5
f 12//6 13//6 11//6
f 14//7 15//7 13//7
f 16//8 17//8 15//8
f 18//9 19//9 17//9
f 20//10 21//10 19//10
f 22//11 23//11 21//11
f 24//12 25//12 23//12
f 26//13 27//13 25//13
f 28//14 29//14 27//14
f 30//15 31//15 29//15
f 32//16 33//16 31//16
f 34//17 18//17 10//17
f 34//18 35//18 33//18
f 36//19 1//19 35//19
f 7//20 23//20 31//20
f 2//1 4//1 3//1
f 4//2 6//2 5//2
f 6//3 8//3 7//3
f 8//4 10//4 9//4
f 10//5 12//5 11//5
f 12//6 14//6 13//6
f 14//7 16//7 15//7
f 16//8 18//8 17//8
f 18//9 20//9 19//9
f 20//10 22//10 21//10
f 22//11 24//11 23//11
f 24//12 26//12 25//12
f 26//13 28//13 27//13
f 28//14 30//14 29//14
f 30//15 32//15 31//15
f 32//16 34//16 33//16
f 6//17 4//17 2//17
f 2//17 36//17 34//17
f 34//17 32//17 30//17
f 30//17 28//17 26//17
f 26//17 24//17 22//17
f 22//17 20//17 18//17
f 18//17 16//17 14//17
f 14//17 12//17 10//17
f 10//17 8//17 6//17
f 6//17 2//17 34//17
f 34//17 30//17 26//17
f 26//17 22//17 18//17
f 18//17 14//17 10//17
f 10//17 6//17 34//17
f 34//17 26//17 18//17
f 34//18 36//18 35//18
f 36//19 2//19 1//19
f 35//20 1//20 3//20
f 3//20 5//20 7//20
f 7//20 9//20 11//20
f 11//20 13//20 15//20
f 15//20 17//20 19//20
f 19//20 21//20 23//20
f 23//20 25//20 27//20
f 27//20 29//20 31//20
f 31//20 33//20 35//20
f 35//20 3//20 7//20
f 7//20 11//20 15//20
f 15//20 19//20 23//20
f 23//20 27//20 31//20
f 31//20 35//20 7//20
f 7//20 15//20 23//20

